{
  "accessors": [
    {
      "bufferView": 2,
      "componentType": 5126,
      "count": 3242,
      "max": [
        7.265650272369385,
        2.317760705947876,
        0.6741063594818115
      ],
      "min": [
        -7.265650272369385,
        -2.345825433731079,
        -13.252449035644531
      ],
      "type": "VEC3"
    },
    {
      "bufferView": 2,
      "byteOffset": 38904,
      "componentType": 5126,
      "count": 3242,
      "max": [
        0.9997138381004333,
        0.9977203607559204,
        0.999997615814209
      ],
      "min": [
        -0.9997138381004333,
        -0.9980576038360596,
        -0.9999887347221375
      ],
      "type": "VEC3"
    },
    {
      "bufferView": 1,
      "componentType": 5126,
      "count": 3242,
      "max": [
        1.000000238418579,
        1.0000001192092896
      ],
      "min": [
        0.0,
        0.0
      ],
      "type": "VEC2"
    },
    {
      "bufferView": 0,
      "componentType": 5125,
      "count": 17808,
      "type": "SCALAR"
    },
    {
      "bufferView": 2,
      "byteOffset": 77808,
      "componentType": 5126,
      "count": 276,
      "max": [
        7.268138885498047,
        1.6571213006973267,
        0.1738635152578354
      ],
      "min": [
        -7.268138885498047,
        1.4019713401794434,
        -1.4465903043746948
      ],
      "type": "VEC3"
    },
    {
      "bufferView": 2,
      "byteOffset": 81120,
      "componentType": 5126,
      "count": 276,
      "max": [
        0.9999132752418518,
        0.5934755206108093,
        0.9995993971824646
      ],
      "min": [
        -0.9999132752418518,
        -0.6028223633766174,
        -0.36075955629348755
      ],
      "type": "VEC3"
    },
    {
      "bufferView": 1,
      "byteOffset": 25936,
      "componentType": 5126,
      "count": 276,
      "max": [
        0.0,
        0.0
      ],
      "min": [
        0.0,
        0.0
      ],
      "type": "VEC2"
    },
    {
      "bufferView": 0,
      "byteOffset": 71232,
      "componentType": 5125,
      "count": 1440,
      "type": "SCALAR"
    },
    {
      "bufferView": 2,
      "byteOffset": 84432,
      "componentType": 5126,
      "count": 3632,
      "max": [
        6.324190616607666,
        2.022362470626831,
        0.30922725796699524
      ],
      "min": [
        -6.324190616607666,
        -2.1840157508850098,
        -0.019194163382053375
      ],
      "type": "VEC3"
    },
    {
      "bufferView": 2,
      "byteOffset": 128016,
      "componentType": 5126,
      "count": 3632,
      "max": [
        0.999712347984314,
        0.9999735951423645,
        0.9992941617965698
      ],
      "min": [
        -0.999712347984314,
        -0.9999960660934448,
        -0.9992941617965698
      ],
      "type": "VEC3"
    },
    {
      "bufferView": 1,
      "byteOffset": 28144,
      "componentType": 5126,
      "count": 3632,
      "max": [
        0.0,
        0.0
      ],
      "min": [
        0.0,
        0.0
      ],
      "type": "VEC2"
    },
    {
      "bufferView": 0,
      "byteOffset": 76992,
      "componentType": 5125,
      "count": 5448,
      "type": "SCALAR"
    }
  ],
  "asset": {
    "extras": {
      "author": "maia_designs (https://sketchfab.com/maia_designs)",
      "license": "CC-BY-NC-4.0 (http://creativecommons.org/licenses/by-nc/4.0/)",
      "source": "https://sketchfab.com/3d-models/glasses-05e2b8aa48e9486680b5dac3525642f0",
      "title": "Glasses"
    },
    "generator": "Sketchfab-15.31.0",
    "version": "2.0"
  },
  "bufferViews": [
    {
      "buffer": 0,
      "byteLength": 98784,
      "name": "floatBufferViews",
      "target": 34963
    },
    {
      "buffer": 0,
      "byteLength": 57200,
      "byteOffset": 98784,
      "byteStride": 8,
      "name": "floatBufferViews",
      "target": 34962
    },
    {
      "buffer": 0,
      "byteLength": 171600,
      "byteOffset": 155984,
      "byteStride": 12,
      "name": "floatBufferViews",
      "target": 34962
    }
  ],
  "buffers": [
    {
      "byteLength": 327584,
      "uri": "scene.bin"
    }
  ],
  "extensionsUsed": [
    "KHR_materials_specular"
  ],
  "materials": [
    {
      "doubleSided": true,
      "name": "plastic",
      "pbrMetallicRoughness": {
        "baseColorFactor": [
          0.0,
          0.0,
          0.0,
          1.0
        ],
        "metallicFactor": 0.0,
        "roughnessFactor": 0.26
      }
    },
    {
      "doubleSided": true,
      "extensions": {
        "KHR_materials_specular": {
          "specularColorFactor": [
            1.0,
            1.0,
            1.0
          ],
          "specularFactor": 0.8396216064658483
        }
      },
      "name": "metal",
      "pbrMetallicRoughness": {
        "baseColorFactor": [
          0.527115,
          0.527115,
          0.527115,
          1.0
        ],
        "roughnessFactor": 0.15085760261364606
      }
    },
    {
      "alphaMode": "BLEND",
      "doubleSided": true,
      "name": "glass",
      "pbrMetallicRoughness": {
        "baseColorFactor": [
          0.8,
          0.8,
          0.8,
          0.03
        ],
        "metallicFactor": 0.0,
        "roughnessFactor": 0.0
      }
    }
  ],
  "meshes": [
    {
      "name": "glasses_plastic_0",
      "primitives": [
        {
          "attributes": {
            "NORMAL": 1,
            "POSITION": 0,
            "TEXCOORD_0": 2
          },
          "indices": 3,
          "material": 0,
          "mode": 4
        }
      ]
    },
    {
      "name": "glasses_metal_0",
      "primitives": [
        {
          "attributes": {
            "NORMAL": 5,
            "POSITION": 4,
            "TEXCOORD_0": 6
          },
          "indices": 7,
          "material": 1,
          "mode": 4
        }
      ]
    },
    {
      "name": "glasses_glass_0",
      "primitives": [
        {
          "attributes": {
            "NORMAL": 9,
            "POSITION": 8,
            "TEXCOORD_0": 10
          },
          "indices": 11,
          "material": 2,
          "mode": 4
        }
      ]
    }
  ],
  "nodes": [
    {
      "children": [
        1
      ],
      "matrix": [
        1.0,
        0.0,
        0.0,
        0.0,
        0.0,
        2.220446049250313e-16,
        -1.0,
        0.0,
        0.0,
        1.0,
        2.220446049250313e-16,
        0.0,
        0.0,
        0.0,
        0.0,
        1.0
      ],
      "name": "Sketchfab_model"
    },
    {
      "children": [
        2
      ],
      "matrix": [
        0.009999999776482582,
        0.0,
        0.0,
        0.0,
        0.0,
        0.0,
        0.009999999776482582,
        0.0,
        0.0,
        -0.009999999776482582,
        0.0,
        0.0,
        0.0,
        0.0,
        0.0,
        1.0
      ],
      "name": "b1e2387bc72340578363022261ad6ef4.fbx"
    },
    {
      "children": [
        3
      ],
      "name": "RootNode"
    },
    {
      "children": [
        4,
        5,
        6
      ],
      "name": "glasses"
    },
    {
      "mesh": 0,
      "name": "glasses_plastic_0"
    },
    {
      "mesh": 1,
      "name": "glasses_metal_0"
    },
    {
      "mesh": 2,
      "name": "glasses_glass_0"
    }
  ],
  "scene": 0,
  "scenes": [
    {
      "name": "Sketchfab_Scene",
      "nodes": [
        0
      ]
    }
  ]
}
